<svg xmlns="http://www.w3.org/2000/svg" xmlns:xlink="http://www.w3.org/1999/xlink" width="109" height="109"
     viewBox="0 0 109 109" preserveAspectRatio="xMidYMid meet" zoomAndPan="magnify" version="1.0">
  <g xmlns:kvg="http://kanjivg.tagaini.net"
     style="fill:none;stroke:red;stroke-width:6;stroke-linecap:round;stroke-linejoin:round;">
    <g>
      <g>
        <g>
          <path
              d="M13.77,28.16c1.98,0.22,3.25,0.14,4.75-0.05c6.93-0.88,17.27-2.67,23.1-3.29c1.54-0.16,3.09-0.29,4.62,0.04"/>
          <path d="M29.87,13.38c0.81,0.81,1.06,1.99,1.06,3.23c0,3.14-0.06,10.76-0.06,22.01"/>
        </g>
        <g>
          <g>
            <path
                d="M14.08,41.56c0.68,0.68,1.05,1.69,1.43,3.25c0.3,1.21,1.41,9.29,2.41,15.83c0.24,1.57,0.48,3.06,0.69,4.34"/>
            <path
                d="M16.08,42.31c6.23-1.27,19.69-3.79,25.9-4.45c4.53-0.49,4.96,1.36,4.3,5.4c-0.54,3.29-1.45,9.03-2.23,13.5c-0.29,1.64-0.59,3.18-0.91,4.48"/>
            <path d="M18.53,52.12C26,51,37.75,48.88,44.31,48.47"/>
            <path d="M19.91,61.93c8.34-1.18,15.84-2.68,22.92-3.06"/>
          </g>
          <g>
            <path
                d="M10.92,77.63c1.96,0.69,4.21,0.29,6.21,0.02c7.48-1,18.52-3.32,25.62-3.78c1.86-0.12,4-0.39,5.83-0.01"/>
            <path d="M30.49,63.35c0.77,0.77,1.18,1.9,1.18,3.35c0,0.59,0,16.08-0.05,25.3c-0.01,2.73-0.03,4.92-0.04,6"/>
          </g>
        </g>
      </g>
    </g>
  </g>
</svg>
