<svg xmlns="http://www.w3.org/2000/svg" xmlns:xlink="http://www.w3.org/1999/xlink" width="109" height="109"
     viewBox="0 0 109 109" preserveAspectRatio="xMidYMid meet" zoomAndPan="magnify" version="1.0">
  <g xmlns:kvg="http://kanjivg.tagaini.net"
     style="fill:none;stroke:red;stroke-width:6;stroke-linecap:round;stroke-linejoin:round;">
    <g>
      <g>
        <g>
          <path d="M58.04,12c0.14,1.15-0.29,2.4-0.75,3.38c-2.92,6.26-7.67,13-13.04,18.41"/>
          <path
              d="M57.25,22.39c0.99,0.1,2.37,0.09,4-0.02c6.77-0.43,17.72-2.33,24.24-3.18c2.09-0.27,3.95-0.44,6.01,0.06"/>
        </g>
        <path
            d="M43.25,39.39c2.38,0.49,5.42,0.27,7.62-0.02c12.38-1.62,31.25-4.29,40.99-5.05c2.22-0.17,4.44-0.34,6.63,0.19"/>
        <g>
          <g>
            <path d="M64.32,27.68c0.18,1.57-0.08,3.14-0.95,4.96C57.81,44.21,50.75,58,38,69.34"/>
            <path d="M55.15,53.13c0.67,0.67,0.88,1.5,0.88,2.87c0,6.41-0.02,24.25-0.02,34.75c0,3.31-0.01,6.05-0.01,7.5"/>
          </g>
          <path d="M77.7,41.18c0.05,0.51-0.02,1.18-0.18,1.62c-1.07,2.79-2.43,4.94-4.89,8.33"/>
          <path d="M56.8,53.83c6.7-0.58,20.07-2.32,28.69-3.23c1.91-0.2,3.84-0.33,5.75-0.6"/>
          <path d="M74.66,53.39c0.79,0.79,0.92,1.86,0.92,2.88c0,6.3-0.19,24.22-0.19,34"/>
          <path d="M56.94,66.58c5.91-0.57,23.6-2.61,32.1-3.48c2.05-0.21,3.54-0.37,4.15-0.44"/>
          <path d="M57.05,79.12c6.24-0.48,24.52-2.09,33.71-2.97c2.22-0.21,3.82-0.37,4.46-0.43"/>
          <path d="M56.96,92.25c7.92-0.38,25.59-1.6,35.55-2.29c2.64-0.18,4.55-0.33,5.25-0.43"/>
        </g>
      </g>
    </g>
  </g>
</svg>
