<svg xmlns="http://www.w3.org/2000/svg" xmlns:xlink="http://www.w3.org/1999/xlink" width="109" height="109"
     viewBox="0 0 109 109" preserveAspectRatio="xMidYMid meet" zoomAndPan="magnify" version="1.0">
  <g xmlns:kvg="http://kanjivg.tagaini.net"
     style="fill:none;stroke:red;stroke-width:6;stroke-linecap:round;stroke-linejoin:round;">
    <g>
      <g>
        <g>
          <path d="M59.15,16.05c0,0.95-0.55,1.42-1.1,1.99c-3.7,3.82-6.56,6.1-12.3,9.2"/>
          <path
              d="M41.37,28.28c0.86,0.86,1.25,2.22,1.25,3.69c0,5.03-0.11,21.4-0.11,28.06c0,1.52,0.7,2.03,2.37,0.85c1.67-1.18,7.38-6.62,16.27-13.65"/>
        </g>
        <g>
          <path
              d="M67.68,24.05c0.62,0.16,2.37,0.63,3.62,0.47c1.25-0.16,12.85-1.83,14.4-2.05c2.43-0.35,4.05,0.15,4.05,3.08c0.01,7.2-1,19.2-3,30.79c-1.25,7.25-5.92,0.81-6.39,0.49"/>
          <path d="M68.02,24.73c0.75,0.75,1.05,1.77,1.05,3.11c0,6.78,0.03,31.8,0.02,44.67c0,4.36,0,7.26-0.01,7.49"/>
        </g>
      </g>
    </g>
  </g>
</svg>
