<svg xmlns="http://www.w3.org/2000/svg" xmlns:xlink="http://www.w3.org/1999/xlink" width="109" height="109"
     viewBox="0 0 109 109" preserveAspectRatio="xMidYMid meet" zoomAndPan="magnify" version="1.0">
  <g xmlns:kvg="http://kanjivg.tagaini.net"
     style="fill:none;stroke:red;stroke-width:6;stroke-linecap:round;stroke-linejoin:round;">
    <g>
      <g>
        <path d="M48.38,19.12c3.06,2,7.38,8,8.68,11.34"/>
        <path d="M85.53,17.89c0.1,0.79-0.03,1.53-0.4,2.22c-1.29,2.97-4.48,6.31-8.82,9.6"/>
        <g>
          <path
              d="M48.5,37.39c2.38,0.49,4.41,0.32,6.38,0.09c6.05-0.72,15.3-1.99,21.63-2.46c1.82-0.14,3.96-0.19,5.74,0.25"/>
          <path d="M43,50.14c2.62,0.36,4.71,0.26,6.88-0.01c8.27-1.04,26-3,34.73-3.93c2.24-0.24,4.68-0.22,6.89,0.32"/>
        </g>
        <g>
          <path d="M65.88,12.25c0.87,0.87,1.33,2.07,1.36,3.95c0.26,16.05-8.37,42.17-24.49,51.55"/>
          <path d="M69.43,41.98c3.61,4.32,19.15,18.42,23.13,21.59c1.35,1.07,3.08,1.53,4.43,1.84"/>
        </g>
      </g>
    </g>
  </g>
</svg>
