<svg xmlns="http://www.w3.org/2000/svg" xmlns:xlink="http://www.w3.org/1999/xlink" width="109" height="109"
     viewBox="0 0 109 109" preserveAspectRatio="xMidYMid meet" zoomAndPan="magnify" version="1.0">
  <g xmlns:kvg="http://kanjivg.tagaini.net"
     style="fill:none;stroke:red;stroke-width:6;stroke-linecap:round;stroke-linejoin:round;">
    <g>
      <g>
        <g>
          <path d="M64.87,9.75c0.07,0.79,0.08,1.87-0.38,2.94C61.75,19,53.25,34.25,40.96,43.5"/>
          <path d="M64.78,14.88c5.47,4.37,16.81,16.59,23.76,22.98c2.2,2.03,4.29,3.27,6.76,4.83"/>
        </g>
        <g>
          <g>
            <path
                d="M50.78,43.24c1.97,0.39,3.82,0.25,5.38,0.04c4.77-0.67,13.87-2.1,19.99-2.77c1.29-0.14,3.11-0.38,4.62-0.17"/>
          </g>
          <g>
            <path
                d="M46.68,55.84c0.62,0.62,0.95,1.54,1.08,2.29c1.02,5.79,1.2,9.36,1.85,14.5c0.15,1.18,0.32,2.44,0.53,3.84"/>
            <path
                d="M49.16,57.74c9.93-1.3,26.3-3.22,33.09-3.84c2.93-0.27,4.97,0.72,4.06,3.87c-1.13,3.85-2.2,7.44-3.53,11.68"/>
            <path d="M51.08,73.75c5.54-0.46,20.55-2.12,30.07-2.94c1.67-0.14,3.17-0.26,4.4-0.34"/>
          </g>
          <g>
            <path d="M63.79,45.5c0.92,0.92,1.34,2.38,1.36,3.75c0.48,25.5-4.02,39.75-25.15,51"/>
            <path d="M64,73c3.83,4.52,20.32,19.27,24.55,22.58c1.43,1.12,3.27,1.6,4.7,1.92"/>
          </g>
        </g>
      </g>
    </g>
  </g>
</svg>
