<svg xmlns="http://www.w3.org/2000/svg" xmlns:xlink="http://www.w3.org/1999/xlink" width="109" height="109"
     viewBox="0 0 109 109" preserveAspectRatio="xMidYMid meet" zoomAndPan="magnify" version="1.0">
  <g xmlns:kvg="http://kanjivg.tagaini.net"
     style="fill:none;stroke:red;stroke-width:6;stroke-linecap:round;stroke-linejoin:round;">
    <g>
      <g>
        <g>
          <path d="M 66.89,17.5 c 0.13,1.75 -0.04,2.55 -0.46,4.05 -2.67,9.57 -6.81,18.7 -12.93,29.32"/>
          <path d="M 60.44,39.43 c 0.87,0.87 0.9,1.82 0.9,3.13 0,9.03 0,39.94 0,47.94 0,4.5 -0.09,5.88 -0.09,7.5"/>
        </g>
        <path d="M 84.2,17.72 c 0.06,0.95 0.02,2.2 -0.21,2.99 -1.24,4.28 -3.03,8.91 -5.85,15.2"/>
        <path d="M 61.41,38.94 C 67.77,38.11 80.3,36.7 88,35.74 c 3,-0.37 5.26,-0.68 6.14,-0.85"/>
        <path d="M 78.73,38.61 c 0.83,0.83 0.88,2.11 0.88,3.26 C 79.6,50.98 79.5,74.72 79.5,87"/>
        <path d="M 62.39,55.45 c 5.99,-0.7 17.35,-1.81 24.62,-2.55 2.59,-0.27 4.55,-0.48 5.33,-0.62"/>
        <path d="M 62.68,70.89 c 6.2,-0.64 18.68,-2.1 25.71,-2.91 2.01,-0.23 3.51,-0.42 4.19,-0.54"/>
        <path d="M 62.55,89.97 c 7.7,-0.72 20.75,-2.07 29.2,-2.85 2.47,-0.23 4.29,-0.42 5,-0.56"/>
      </g>
    </g>
  </g>
</svg>
