<svg xmlns="http://www.w3.org/2000/svg" xmlns:xlink="http://www.w3.org/1999/xlink" width="109" height="109"
     viewBox="0 0 109 109" preserveAspectRatio="xMidYMid meet" zoomAndPan="magnify" version="1.0">
  <g xmlns:kvg="http://kanjivg.tagaini.net"
     style="fill:none;stroke:red;stroke-width:6;stroke-linecap:round;stroke-linejoin:round;">
    <g>
      <g>
        <g>
          <g>
            <path d="M52.5,17.12c3.26,2.44,8.43,10.05,9.25,13.85"/>
          </g>
          <g>
            <path d="M86,13.12c0.03,0.98-0.32,2.12-0.53,2.69c-1.57,4.3-4.89,10.3-10.07,16.15"/>
          </g>
        </g>
        <g>
          <g>
            <path
                d="M51.73,38.63c0.88,0.88,1.27,1.62,1.5,2.61c0.69,3.05,1.71,10.07,2.64,16.38c0.19,1.31,0.38,2.58,0.56,3.79"/>
            <path
                d="M54.23,40.12c7.61-1.18,20.73-2.41,28.25-3.16c3.39-0.34,5.93,0.58,5.07,4.45c-0.95,4.28-2.43,8.36-3.64,13.97"/>
            <path d="M57.36,58.97c5.24-0.34,16.66-1.33,25.14-2.03c1.41-0.12,2.74-0.22,3.95-0.32"/>
          </g>
          <g>
            <g>
              <path d="M62.96,64.66c0.06,0.74,0.15,1.93-0.11,2.99C61.12,74.5,54,87.88,42.64,96.22"/>
            </g>
            <path
                d="M73.14,60.29c1.03,1.03,1.29,2.12,1.31,3.99c0.07,5.13-0.24,12.35-0.24,18.71c0,10.25,1.29,11.76,12.16,11.76c9.87,0,10.62-2,10.62-7.99"/>
          </g>
        </g>
      </g>
    </g>
  </g>
</svg>
