<svg xmlns="http://www.w3.org/2000/svg" xmlns:xlink="http://www.w3.org/1999/xlink" width="109" height="109"
     viewBox="0 0 109 109" preserveAspectRatio="xMidYMid meet" zoomAndPan="magnify" version="1.0">
  <g xmlns:kvg="http://kanjivg.tagaini.net"
     style="fill:none;stroke:red;stroke-width:6;stroke-linecap:round;stroke-linejoin:round;">
    <g>
      <g>
        <g>
          <path d="M52.61,11.07c1.03,1.03,1.48,2.71,1.48,3.91c0,1.76,0.1,5.26,0.1,8.15"/>
          <path
              d="M12.75,27.18c3.44,0.57,6.26,0.89,9.26,0.55c21.74-2.48,42.23-4.98,64.56-5.7c3.59-0.12,6,0.05,8.68,0.7"/>
        </g>
        <g>
          <path
              d="M49.66,27.5c0.09,1.25-0.03,2.5-0.91,3.5c-3.62,4.12-8.12,8.5-14,12.75c-2.28,1.65-1.26,4.6,2.25,3.75c8.25-2,23-5.5,35-8.75"/>
          <path d="M65.25,32.38c4.59,2.4,11.85,9.88,13,13.62"/>
        </g>
      </g>
    </g>
  </g>
</svg>
