<svg xmlns="http://www.w3.org/2000/svg" xmlns:xlink="http://www.w3.org/1999/xlink" width="109" height="109"
     viewBox="0 0 109 109" preserveAspectRatio="xMidYMid meet" zoomAndPan="magnify" version="1.0">
  <g xmlns:kvg="http://kanjivg.tagaini.net"
     style="fill:none;stroke:red;stroke-width:6;stroke-linecap:round;stroke-linejoin:round;">
    <g>
      <g>
        <g>
          <path d="M33.18,37.47c0.67,0.95,1.4,2.4,1.4,3.67c0,1.03,0.04,25.75,0.05,35.24c0,2.17,0,3.54,0,3.65"/>
          <path
              d="M35.45,39.11c6.15-0.76,27.6-2.91,34.68-3.71c4.62-0.52,5.87,0.85,5.87,5.48c0,5.23-0.09,20.35-0.11,32.88c0,1.47,0,2.91,0,4.29"/>
          <path d="M35.63,51.71c10.62-1.08,27.37-2.46,39.22-3.07"/>
          <path d="M35.69,63.84c9.56-0.96,28.18-2.34,38.96-2.9"/>
          <path d="M35.92,77c9.83-0.75,29.21-2.39,38.96-2.39"/>
        </g>
        <g>
          <path d="M41.76,82.62c0.37,1.5-0.33,2.79-1.45,3.71c-3.4,2.77-12.91,8.64-19.7,11.92"/>
          <path d="M67.25,82.88c6.37,4.12,13.9,11.59,15.64,15.2"/>
        </g>
      </g>
    </g>
  </g>
</svg>
